:version 1.10
:name ASF
:units
  mass 1
  length 1
  angle deg
:documentation
  ASF file generated by Kaydara
:root
  axis xyz
  order  tx ty tz rx ry rz
  position 0 0 0
  orientation 0 0 0
:bonedata
  begin
    id 1
    name RightUpLegDummy
    direction -1 2.30186e-007 8.31532e-007
    length 4.46685
    axis 0 0 0 xyz
  end
  begin
    id 2
    name RightUpLeg
    direction -2.30187e-007 -1 1.24343e-010
    length 16.4045
    axis -3.49089 -0.000906625 0.000286804 xyz
    dof rx ry rz
  end
  begin
    id 3
    name RightLeg
    direction -2.30181e-007 -1 -4.17157e-009
    length 17.5097
    axis 3.68512 0.0193738 -0.131023 xyz
    dof rx ry rz
  end
  begin
    id 4
    name RightFoot
    direction 8.31421e-007 -4.51202e-011 1
    length 6.49508
    axis 4.81691e-005 -0.120479 -0.188788 xyz
    dof rx ry rz
  end
  begin
    id 5
    name RightToes
    direction 0.00124746 -0.014064 0.9999
    length 3.85082
    axis 0.000481921 0.542163 -0.142578 xyz
    dof rx ry rz
  end
  begin
    id 6
    name SpineDummy
    direction 0.0717043 0.9409 -0.331007
    length 10.0032
    axis 0 0 0 xyz
  end
  begin
    id 7
    name Spine
    direction 2.30186e-007 1 4.58806e-011
    length 9.84055
    axis -0.001389 0.000121418 2.40972e-006 xyz
    dof rx ry rz
  end
  begin
    id 8
    name Spine1
    direction 0 0 0
    length 0
    axis -0.001389 0.000121451 1.30017e-006 xyz
    dof rx ry rz
  end
  begin
    id 9
    name HEadDummy
    direction -0.00347485 0.950688 -0.310128
    length 8.00997
    axis -0.001389 0.000121451 1.30017e-006 xyz
  end
  begin
    id 10
    name HEad
    direction -0.0222688 0.980941 0.193023
    length 5.12695
    axis -0.001389 0.000121451 1.30017e-006 xyz
    dof rx ry rz
  end
  begin
    id 11
    name LeftShoulder1Dummy
    direction 0.988871 0.146793 -0.0242004
    length 3.5792
    axis -0.001389 0.000121451 1.30017e-006 xyz
  end
  begin
    id 12
    name LeftShoulder1
    direction 0.993832 0.108932 0.020779
    length 4.16823
    axis -0.001389 0.000121451 1.30017e-006 xyz
    dof rx ry rz
  end
  begin
    id 13
    name LeftArm
    direction 1 3.44807e-006 -8.31404e-007
    length 9.91437
    axis -23.1894 0.134784 0.967509 xyz
    dof rx ry rz
  end
  begin
    id 14
    name LeftForeArm
    direction 1 3.44842e-006 -8.31581e-007
    length 9.08575
    axis -9.91835 -0.06569 -0.177793 xyz
    dof rx ry rz
  end
  begin
    id 15
    name LeftHand
    direction 0.992938 -0.0411636 0.11126
    length 5.32135
    axis -0.00960232 -0.00340091 0.185173 xyz
    dof rx ry rz
  end
  begin
    id 16
    name RightShoulderDummy
    direction -0.988871 0.146793 -0.0241962
    length 3.5792
    axis -0.001389 0.000121451 1.30017e-006 xyz
  end
  begin
    id 17
    name RightShoulder
    direction -0.993832 0.108933 0.0207785
    length 4.16823
    axis 0.215806 0.000203643 -0.0068026 xyz
    dof rx ry rz
  end
  begin
    id 18
    name RightArm
    direction -1 3.90912e-006 8.31284e-007
    length 9.91437
    axis -23.2009 -0.134239 -0.964101 xyz
    dof rx ry rz
  end
  begin
    id 19
    name RightForeArm
    direction -1 3.90882e-006 8.31502e-007
    length 9.08575
    axis -9.92322 0.0658061 0.178867 xyz
    dof rx ry rz
  end
  begin
    id 20
    name RightHand
    direction -0.992843 -0.0414603 0.112003
    length 5.28593
    axis -0.00960638 0.00330671 -0.185228 xyz
    dof rx ry rz
  end
  begin
    id 21
    name LeftUpLegDummy
    direction 1 -2.30186e-007 -8.31532e-007
    length 4.46685
    axis 0 0 0 xyz
  end
  begin
    id 22
    name LeftUpLeg
    direction -2.30187e-007 -1 6.00931e-010
    length 16.4045
    axis -3.48766 0.00143442 -0.000524262 xyz
    dof rx ry rz
  end
  begin
    id 23
    name LeftLeg
    direction -2.30187e-007 -1 1.6669e-009
    length 17.5097
    axis 3.68178 -0.00654042 -0.000285133 xyz
    dof rx ry rz
  end
  begin
    id 24
    name LeftFoot
    direction 8.31532e-007 -4.54478e-011 1
    length 6.49508
    axis 1.87233e-006 4.66016e-005 -8.6538e-006 xyz
    dof rx ry rz
  end
  begin
    id 25
    name LeftToes
    direction 0.00818058 -0.00485161 0.999955
    length 3.85048
    axis 1.06247e-005 4.65869e-005 -8.65513e-006 xyz
    dof rx ry rz
  end
:hierarchy
  begin
    root RightUpLegDummy SpineDummy LeftUpLegDummy
    RightUpLegDummy RightUpLeg
    RightUpLeg RightLeg
    RightLeg RightFoot
    RightFoot RightToes
    SpineDummy Spine
    Spine Spine1
    Spine1 HEadDummy LeftShoulder1Dummy RightShoulderDummy
    HEadDummy HEad
    LeftShoulder1Dummy LeftShoulder1
    LeftShoulder1 LeftArm
    LeftArm LeftForeArm
    LeftForeArm LeftHand
    RightShoulderDummy RightShoulder
    RightShoulder RightArm
    RightArm RightForeArm
    RightForeArm RightHand
    LeftUpLegDummy LeftUpLeg
    LeftUpLeg LeftLeg
    LeftLeg LeftFoot
    LeftFoot LeftToes
  end

:SAMPLES-PER-SECOND 30
:FULLY-SPECIFIED
:DEGREES
145
root  23.941 29.9884 32.1873 -160.75 -32.8471 174.83
RightUpLeg  -24.6871 -0.581497 -2.65728
RightLeg  74.4209 8.20031 22.0239
RightFoot  3.25242 -0.0483678 2.08065
RightToes  -57.5748 -0.371795 -0.391488
Spine  12.0645 1.60047 -0.140934
Spine1  22.0211 6.01883 -3.53308
HEad  16.9287 7.72741 -5.00773
LeftShoulder1  0 -2.42657e-020 -4.95415e-022
LeftArm  -20.2493 -3.47598 -82.1259
LeftForeArm  -139.958 -20.3192 -3.33739
LeftHand  9.81778 -25.2346 -42.3624
RightShoulder  0 2.42657e-020 1.07489e-018
RightArm  -39.3574 9.20187 78.4616
RightForeArm  -6.49109 40.2972 8.57223
RightHand  4.8838 23.6441 23.4074
LeftUpLeg  -47.3092 1.90774 -17.725
LeftLeg  50.5691 -1.66045 -1.78038
LeftFoot  -12.0896 0.108145 1.02121
LeftToes  5.64047 1.18758e-006 1.19596e-007
146
root  22.475 30.2425 30.3082 -163.629 -34.002 175.257
RightUpLeg  -25.4975 -0.709688 -3.96717
RightLeg  77.9808 4.02363 13.7264
RightFoot  0.144875 -6.57059e-005 0.427464
RightToes  -50.5838 -0.308058 -0.366783
Spine  10.6253 0.417752 0.179837
Spine1  20.1226 2.42368 -1.9101
HEad  20.3248 9.53715 -6.12444
LeftShoulder1  0 -2.42657e-020 -4.95415e-022
LeftArm  -20.092 2.23157 -81.1685
LeftForeArm  -134 -18.8034 -3.04828
LeftHand  9.2027 -25.3141 -39.8125
RightShoulder  0 2.42657e-020 1.07489e-018
RightArm  -37.5516 1.30109 78.7009
RightForeArm  -6.9752 48.526 11.4856
RightHand  4.4644 21.3954 23.6939
LeftUpLeg  -39.8002 1.44228 -16.9074
LeftLeg  49.7408 -1.34592 -1.40359
LeftFoot  -15.6808 0.107258 0.778893
LeftToes  7.59008 1.18758e-006 1.19596e-007
147
root  21.1061 30.6962 28.4905 -164.896 -34.585 175.898
RightUpLeg  -28.8158 -0.703548 -5.05983
RightLeg  78.9243 1.62577 5.81028
RightFoot  -3.17477 -0.0136728 -0.11586
RightToes  -39.8249 -0.217086 -0.314131
Spine  9.21509 -0.390116 0.496364
Spine1  17.7283 0.0986619 -0.711613
HEad  23.1105 10.8571 -5.89075
LeftShoulder1  0 -2.42657e-020 -4.95415e-022
LeftArm  -19.9845 6.88456 -80.809
LeftForeArm  -129.355 -18.0027 -2.90106
LeftHand  8.58005 -25.4653 -37.1097
RightShoulder  0 2.42657e-020 1.07489e-018
RightArm  -37.5707 -7.25914 79.1806
RightForeArm  -2.67502 56.9808 15.7493
RightHand  4.42283 22.1203 22.7264
LeftUpLeg  -33.1734 -0.356783 -15.8523
LeftLeg  46.7447 -0.183575 -0.178247
LeftFoot  -17.4704 0.0313802 0.204222
LeftToes  7.78033 1.18758e-006 1.19596e-007
148
root  19.8456 31.337 26.6836 -166.241 -34.4992 176.969
RightUpLeg  -31.9934 -0.161451 -5.43545
RightLeg  75.6977 0.0896287 0.0172585
RightFoot  -5.38738 -0.0107697 0.148662
RightToes  -31.8148 -0.156616 -0.26438
Spine  8.38147 -0.842447 0.932679
Spine1  16.28 -1.07708 0.269254
HEad  25.4732 12.2762 -5.68505
LeftShoulder1  0 -2.42657e-020 -4.95415e-022
LeftArm  -21.8835 9.87938 -81.3935
LeftForeArm  -126.546 -17.5319 -2.81583
LeftHand  8.34793 -25.435 -36.2179
RightShoulder  0 2.42657e-020 1.07489e-018
RightArm  -37.664 -15.6375 79.1637
RightForeArm  -0.707082 66.2326 23.6468
RightHand  3.90326 20.8856 21.3259
LeftUpLeg  -26.3645 -2.00663 -14.6327
LeftLeg  42.2861 1.44197 1.14525
LeftFoot  -16.8019 -0.0676853 -0.458319
LeftToes  5.78806 1.18758e-006 1.19596e-007
149
root  18.7165 32.1173 24.8509 -168.36 -34.2898 178.871
RightUpLeg  -33.519 0.947029 -4.64859
RightLeg  67.7172 -1.38902 -2.99337
RightFoot  -6.31885 0.00435928 0.456574
RightToes  -28.6958 -0.135044 -0.2428
Spine  8.01883 -1.36181 1.48072
Spine1  15.6937 -2.32469 1.34427
HEad  27.3053 14.4349 -5.49949
LeftShoulder1  0 -2.42657e-020 -4.95415e-022
LeftArm  -24.0507 12.0753 -82.126
LeftForeArm  -127.428 -17.5613 -2.81979
LeftHand  8.54807 -25.4234 -37.0397
RightShoulder  0 2.42657e-020 1.07489e-018
RightArm  -36.1841 -21.9174 79.1624
RightForeArm  13.8258 74.0005 38.1405
RightHand  2.84252 20.9589 15.6543
LeftUpLeg  -19.1436 -1.85116 -12.8133
LeftLeg  36.9399 2.11649 1.38268
LeftFoot  -14.0899 -0.0707744 -0.572702
LeftToes  4.02961 1.18758e-006 1.19596e-007
150
root  17.6449 32.8698 23.0668 -169.776 -35.3687 -179.019
RightUpLeg  -33.8978 0.824363 -3.44544
RightLeg  55.7258 -2.92119 -3.80339
RightFoot  -6.29903 0.0105628 0.569576
RightToes  -28.0411 -0.130667 -0.238123
Spine  7.78123 -2.39 2.08682
Spine1  15.3002 -4.5356 2.40518
HEad  28.3996 16.7677 -5.14201
LeftShoulder1  0 -2.42657e-020 -4.95415e-022
LeftArm  -24.1768 14.0112 -82.2709
LeftForeArm  -132.563 -19.8089 -3.24702
LeftHand  9.00034 -26.3743 -37.5126
RightShoulder  0 2.42657e-020 1.07489e-018
RightArm  -35.9577 -25.8389 80.6104
RightForeArm  47.4449 79.1444 67.8893
RightHand  1.47861 21.0729 8.30982
LeftUpLeg  -13.0778 -1.49929 -10.5848
LeftLeg  31.6258 1.9217 1.01513
LeftFoot  -10.0379 -0.031329 -0.356742
LeftToes  0.254672 1.18758e-006 1.19596e-007
151
root  16.6457 33.435 21.3502 -170.22 -36.45 -177.222
RightUpLeg  -33.742 1.30766 -2.6709
RightLeg  40.9798 -4.35512 -3.3336
RightFoot  -6.37127 0.0134167 0.618677
RightToes  -26.963 -0.123577 -0.230314
Spine  7.38669 -3.38076 2.5906
Spine1  14.5409 -6.62999 3.28431
HEad  29.1516 18.7842 -5.12513
LeftShoulder1  0 -2.42657e-020 -4.95415e-022
LeftArm  -24.4567 15.1573 -82.2958
LeftForeArm  -135.89 -21.3553 -3.54911
LeftHand  9.16874 -26.5908 -37.8649
RightShoulder  0 2.42657e-020 1.07489e-018
RightArm  -36.1446 -28.3753 82.4419
RightForeArm  97.0811 79.2441 110.165
RightHand  0.0212886 21.1372 0.484257
LeftUpLeg  -8.90204 -1.22822 -8.41833
LeftLeg  27.8805 1.21102 0.540753
LeftFoot  -5.69314 -0.00570581 -0.114761
LeftToes  -3.83052 1.18758e-006 1.19596e-007
152
root  15.6473 33.6998 19.677 -169.73 -37.5552 -176.192
RightUpLeg  -33.5035 2.35239 -2.91992
RightLeg  26.0637 -5.61088 -2.30957
RightFoot  -5.88801 0.0121161 0.613215
RightToes  -27.0938 -0.124429 -0.231268
Spine  6.75031 -4.33189 2.88752
Spine1  13.2805 -8.60552 3.85245
HEad  30.1516 20.3848 -5.11894
LeftShoulder1  0 -2.42657e-020 -4.95415e-022
LeftArm  -24.0256 15.9595 -82.0825
LeftForeArm  -137.052 -22.6173 -3.8029
LeftHand  9.29708 -26.7867 -38.0868
RightShoulder  0 2.42657e-020 1.07489e-018
RightArm  -37.3497 -29.7398 84.6355
RightForeArm  129.139 75.6315 135.709
RightHand  -0.802292 22.2498 -3.70929
LeftUpLeg  -6.34355 -1.94428 -7.05018
LeftLeg  26.1887 1.10556 0.45488
LeftFoot  -2.41896 -0.000757145 -0.0358714
LeftToes  -6.68077 1.18758e-006 1.19596e-007
153
root  14.6354 33.6202 17.9555 -169.822 -38.3884 -175.258
RightUpLeg  -33.3404 4.82943 -3.94343
RightLeg  15.4173 -5.54262 -1.14801
RightFoot  -4.52728 0.00201652 0.428629
RightToes  -26.2947 -0.119256 -0.225406
Spine  6.25408 -5.06961 3.14071
Spine1  12.2828 -10.1053 4.28694
HEad  30.8493 21.3127 -4.91851
LeftShoulder1  0 -2.42657e-020 -4.95415e-022
LeftArm  -22.4125 16.4457 -81.6667
LeftForeArm  -137.216 -24.378 -4.16695
LeftHand  9.32413 -26.7136 -38.2889
RightShoulder  0 2.42657e-020 1.07489e-018
RightArm  -36.3138 -30.1859 85.0588
RightForeArm  149.735 70.9602 148.673
RightHand  -1.61608 23.0392 -7.54933
LeftUpLeg  -4.51039 -3.03061 -6.05734
LeftLeg  27.4025 1.85126 0.809907
LeftFoot  -0.43818 8.67097e-006 0.00225853
LeftToes  -11.095 1.18758e-006 1.19596e-007
